<?xml version="1.0" standalone="no"?>
<!DOCTYPE svg PUBLIC "-//W3C//DTD SVG 20010904//EN"
 "http://www.w3.org/TR/2001/REC-SVG-20010904/DTD/svg10.dtd">
<svg version="1.0" xmlns="http://www.w3.org/2000/svg"
 width="300.000000pt" height="300.000000pt" viewBox="0 0 300.000000 300.000000"
 preserveAspectRatio="xMidYMid meet">
<metadata>
Created by potrace 1.10, written by Peter Selinger 2001-2011
</metadata>
<g transform="translate(0.000000,300.000000) scale(0.100000,-0.100000)"
fill="#000000" stroke="none">
<path d="M1400 2450 c-179 -15 -367 -88 -515 -200 -24 -18 -164 -158 -185
-185 -44 -57 -130 -221 -130 -249 0 -7 -3 -16 -7 -20 -13 -13 -32 -100 -44
-203 -32 -278 78 -575 283 -768 79 -74 87 -80 168 -131 163 -101 324 -145 531
-145 208 1 367 44 529 145 110 69 198 149 270 246 221 299 248 686 72 1010
-58 105 -161 225 -258 300 -64 51 -176 112 -254 140 -19 6 -44 16 -55 20 -80
33 -266 51 -405 40z m321 -41 c49 -11 91 -25 95 -30 3 -5 13 -9 22 -9 26 0
153 -63 219 -109 198 -135 334 -337 391 -580 5 -24 11 -105 11 -180 2 -207
-38 -339 -159 -519 -33 -49 -88 -116 -122 -148 -67 -61 -198 -151 -260 -178
-21 -9 -54 -23 -74 -32 -72 -30 -222 -54 -342 -54 -190 0 -330 36 -482 123
-150 86 -286 216 -350 334 -12 21 -29 52 -39 68 -19 32 -62 160 -80 237 -6 26
-11 103 -11 173 0 121 6 157 48 300 13 44 76 163 114 216 18 25 47 64 63 87
17 23 36 41 43 42 6 0 12 4 12 9 0 19 136 115 234 166 93 48 158 70 276 94 89
18 295 13 391 -10z"/>
<path d="M1548 2355 c-92 -30 -147 -116 -118 -185 16 -39 69 -85 114 -100 22
-7 37 -20 41 -33 13 -44 28 -77 35 -77 5 0 16 22 25 49 15 45 18 49 55 54 122
16 192 145 124 227 -58 68 -178 96 -276 65z m188 -34 c72 -33 105 -104 74
-161 -14 -26 -72 -60 -127 -73 -38 -9 -49 -17 -51 -34 -5 -32 -19 -29 -27 6
-5 23 -13 30 -41 35 -47 9 -114 74 -114 110 0 103 166 171 286 117z"/>
<path d="M1541 2276 c-30 -32 -22 -72 22 -113 54 -51 70 -56 107 -30 37 24 65
60 75 94 4 16 -1 30 -19 48 -30 30 -49 32 -75 6 -18 -18 -19 -18 -35 0 -22 26
-48 24 -75 -5z m165 -29 c7 -6 -12 -44 -34 -69 -22 -26 -47 -22 -82 12 -32 31
-35 41 -20 56 10 10 126 11 136 1z"/>
<path d="M1063 1945 c-31 -22 -31 -94 1 -189 23 -67 24 -76 11 -112 -19 -54
-19 -185 1 -232 17 -42 71 -102 92 -102 8 0 11 -7 8 -17 -3 -10 -8 -45 -11
-78 -4 -33 -16 -91 -27 -129 -39 -129 -7 -284 76 -370 53 -54 97 -67 135 -39
22 17 29 17 51 6 34 -17 191 -17 233 1 30 12 35 11 57 -6 46 -37 126 3 176 87
14 25 33 45 42 45 10 0 37 10 62 21 149 67 193 212 134 439 -15 60 -25 112
-21 116 11 12 34 -15 41 -48 8 -42 33 -68 66 -68 36 0 60 29 60 73 0 72 -36
126 -105 158 -52 24 -82 24 -128 -1 l-37 -20 0 58 c0 33 -6 79 -14 104 -12 42
-11 51 10 114 13 38 24 93 24 121 0 45 -4 55 -25 69 -32 21 -87 13 -157 -22
l-49 -25 -43 20 c-114 56 -336 53 -425 -6 -22 -14 -27 -13 -77 11 -70 35 -132
43 -161 21z m152 -45 l61 -29 51 25 c111 55 292 54 391 -1 l45 -25 62 31 c96
47 155 39 155 -20 0 -31 -21 -112 -42 -162 -14 -31 -14 -39 -1 -63 21 -40 28
-164 13 -212 -29 -91 -78 -124 -203 -143 -76 -11 -79 -10 -115 14 -20 14 -45
25 -54 25 -29 0 -25 76 5 100 12 10 19 22 15 26 -5 4 -17 -1 -28 -11 -16 -15
-23 -16 -33 -6 -9 9 -7 16 11 29 29 22 20 32 -29 32 -37 0 -59 -14 -44 -28 4
-4 10 -1 12 6 8 21 21 13 21 -13 0 -35 -18 -42 -39 -16 -10 12 -20 17 -24 12
-3 -6 3 -19 15 -31 12 -12 20 -33 20 -55 0 -31 -4 -37 -37 -50 -21 -9 -45 -23
-54 -31 -14 -12 -28 -13 -85 -4 -139 21 -191 58 -215 154 -12 50 -5 152 14
200 11 24 9 40 -15 110 -34 100 -36 140 -6 160 26 19 53 14 133 -24z m942
-430 c57 -35 94 -140 58 -170 -30 -25 -58 -4 -69 52 -8 35 -32 58 -62 58 -37
0 -39 -23 -10 -121 68 -225 32 -367 -109 -433 -29 -14 -56 -26 -60 -26 -3 0
-3 17 1 38 5 27 19 48 54 79 80 71 87 142 34 327 -32 111 -28 152 17 190 38
32 100 35 146 6z m-607 -49 c0 -5 -3 -23 -6 -40 -5 -24 -12 -31 -31 -31 -21 0
-23 3 -19 38 3 20 5 38 5 40 2 7 51 1 51 -7z m430 -189 c38 -121 21 -239 -38
-271 -18 -9 -20 -5 -25 54 -3 35 -15 86 -26 112 -25 62 -37 183 -18 183 7 0
26 14 43 31 l29 30 8 -38 c4 -21 17 -66 27 -101z m-387 74 c18 -7 48 -31 67
-52 l34 -39 -169 -3 c-92 -1 -170 0 -173 2 -9 10 41 67 76 86 44 23 119 26
165 6z m-306 -27 c35 -6 62 -14 61 -18 -2 -3 -10 -18 -17 -33 -8 -16 -18 -28
-23 -28 -4 0 -8 -14 -8 -32 0 -25 11 -42 55 -84 58 -56 65 -76 38 -106 -32
-35 -101 -16 -151 42 -44 51 -66 171 -46 248 7 26 7 26 91 11z m557 -26 c15
-91 -2 -167 -50 -230 -44 -58 -115 -81 -148 -47 -26 26 -18 56 27 100 23 22
48 48 55 57 14 19 16 53 3 61 -5 3 -18 21 -29 40 l-20 34 61 10 c97 15 94 16
101 -25z m-126 -85 c3 -17 -12 -18 -202 -18 -113 0 -206 2 -206 4 0 2 3 12 6
20 6 14 30 16 203 14 177 -3 196 -5 199 -20z m-70 -81 c-40 -36 -46 -47 -44
-75 4 -37 21 -61 51 -72 21 -8 21 -9 7 -117 -8 -59 -18 -112 -24 -118 -9 -10
-232 -14 -242 -4 -5 4 -36 205 -36 231 0 4 9 8 19 8 27 0 51 37 51 78 0 33 -5
40 -70 91 l-25 20 180 0 180 1 -47 -43z m242 -50 c16 -100 -6 -226 -24 -137
-12 62 -84 64 -144 4 -19 -19 -35 -34 -37 -34 -1 0 0 14 4 32 5 24 14 34 40
43 48 16 110 82 124 132 6 24 14 40 18 35 5 -4 13 -38 19 -75z m-710 58 c0
-50 75 -139 128 -152 30 -7 42 -20 42 -47 0 -15 -5 -13 -35 13 -63 55 -129 51
-142 -9 -10 -51 -23 -44 -25 12 -2 102 8 198 23 198 5 0 9 -7 9 -15z m144
-233 c33 -46 47 -132 26 -157 -37 -45 -138 18 -158 98 -13 53 -6 93 21 112 29
20 75 -1 111 -53z m527 20 c18 -47 1 -103 -46 -149 -46 -46 -91 -57 -115 -28
-21 25 -7 109 26 156 50 72 112 82 135 21z"/>
<path d="M1518 1894 c-5 -4 -8 -23 -8 -43 0 -20 -7 -47 -15 -61 -8 -14 -18
-34 -24 -46 -9 -20 -40 -51 -106 -108 -41 -35 -18 -32 38 5 51 34 102 103 118
162 11 41 9 104 -3 91z"/>
<path d="M1683 1855 c15 -109 90 -186 205 -208 51 -10 37 8 -25 34 -76 31
-123 80 -151 157 -13 34 -26 62 -29 62 -3 0 -3 -20 0 -45z"/>
<path d="M1180 1593 c-25 -3 -49 -9 -55 -15 -13 -14 115 -5 141 10 21 12 11
13 -86 5z"/>
<path d="M1686 1574 c-30 -30 -13 -74 29 -74 46 0 60 48 23 74 -28 20 -33 20
-52 0z"/>
<path d="M1292 1568 c-28 -28 -3 -72 39 -66 30 4 47 33 33 56 -14 21 -55 27
-72 10z"/>
<path d="M1140 1511 c0 -11 80 -30 93 -23 15 8 -7 19 -50 26 -25 4 -43 2 -43
-3z"/>
<path d="M1842 1511 c-27 -5 -41 -15 -29 -23 8 -6 87 14 87 22 0 11 -7 11 -58
1z"/>
<path d="M1186 1450 c-22 -3 -41 -11 -44 -18 -3 -10 5 -12 34 -6 76 13 84 35
10 24z"/>
<path d="M1810 1441 c24 -14 90 -23 90 -13 0 14 -26 22 -68 22 -25 -1 -32 -3
-22 -9z"/>
<path d="M1223 1404 c-3 -8 -1 -20 5 -26 16 -16 42 -2 42 22 0 24 -38 28 -47
4z"/>
<path d="M1772 1398 c2 -15 10 -23 23 -23 30 0 27 39 -3 43 -20 3 -23 0 -20
-20z"/>
<path d="M1466 1083 c-13 -83 -14 -83 61 -83 36 0 63 3 59 7 -4 4 -15 8 -23 8
-9 0 -18 6 -20 13 -3 7 5 12 21 12 14 0 26 5 26 10 0 6 -11 10 -24 10 -20 0
-25 6 -29 33 -3 22 -4 16 -5 -20 -2 -55 -10 -67 -36 -57 -13 5 -16 18 -15 50
3 56 -6 66 -15 17z"/>
<path d="M1394 865 c12 -123 17 -145 35 -145 10 0 12 3 5 8 -6 4 -16 50 -23
102 -14 110 -27 137 -17 35z"/>
<path d="M1637 910 c-4 -14 -6 -41 -6 -60 l1 -35 9 40 c12 48 8 96 -4 55z"/>
<path d="M1470 874 c0 -31 23 -28 28 4 2 15 -2 22 -12 22 -11 0 -16 -9 -16
-26z"/>
<path d="M1527 884 c-14 -15 -6 -34 14 -34 14 0 19 5 17 17 -3 18 -20 27 -31
17z"/>
<path d="M1430 828 c0 -7 11 -14 25 -14 15 -1 25 3 25 12 0 8 -10 14 -25 14
-14 0 -25 -6 -25 -12z"/>
<path d="M1572 823 c4 -21 33 -25 33 -3 0 8 -8 16 -18 18 -14 3 -18 -1 -15
-15z"/>
<path d="M1502 813 c2 -10 10 -18 18 -18 8 0 16 8 18 18 2 12 -3 17 -18 17
-15 0 -20 -5 -18 -17z"/>
<path d="M1627 803 c-4 -3 -7 -19 -7 -34 0 -16 -8 -33 -17 -39 -16 -10 -16
-10 2 -8 15 3 21 13 26 46 6 45 6 45 -4 35z"/>
<path d="M1553 774 c-8 -20 17 -36 34 -22 10 8 10 14 2 24 -15 18 -28 18 -36
-2z"/>
<path d="M1430 771 c0 -18 26 -31 38 -19 19 19 14 28 -13 28 -14 0 -25 -4 -25
-9z"/>
<path d="M1495 771 c-8 -15 3 -31 21 -31 9 0 14 7 12 17 -4 20 -24 28 -33 14z"/>
<path d="M1488 713 c17 -2 47 -2 65 0 17 2 3 4 -33 4 -36 0 -50 -2 -32 -4z"/>
<path d="M1095 699 c-10 -15 -5 -18 55 -29 70 -13 106 -11 53 3 -23 7 -48 18
-55 25 -15 15 -44 16 -53 1z"/>
<path d="M1890 696 c0 -9 -19 -18 -52 -25 l-53 -10 59 5 c77 8 116 21 96 34
-22 14 -50 12 -50 -4z"/>
</g>
</svg>
